<?xml version="1.0" encoding="UTF-8" standalone="no"?>
<!DOCTYPE svg PUBLIC "-//W3C//DTD SVG 1.1//EN"
 "http://www.w3.org/Graphics/SVG/1.1/DTD/svg11.dtd">
<!-- Generated by graphviz version 2.47.0 (20210316.0004)
 -->
<!-- Title: dbml Pages: 1 -->
<svg width="3688pt" height="2005pt"
 viewBox="0.00 0.00 3687.53 2004.76" xmlns="http://www.w3.org/2000/svg" xmlns:xlink="http://www.w3.org/1999/xlink">
<g id="graph0" class="graph" transform="scale(1 1) rotate(0) translate(4 2000.76)">
<title>dbml</title>
<!-- Client -->
<g id="Client" class="node">
<title>Client</title>
<ellipse fill="none" stroke="black" stroke-width="0" cx="3372.65" cy="-489.67" rx="306.77" ry="384.83"/>
<polygon fill="#1d71b8" stroke="transparent" points="3157.65,-699.67 3157.65,-759.67 3587.65,-759.67 3587.65,-699.67 3157.65,-699.67"/>
<polygon fill="none" stroke="#29235c" points="3157.65,-699.67 3157.65,-759.67 3587.65,-759.67 3587.65,-699.67 3157.65,-699.67"/>
<text text-anchor="start" x="3269.51" y="-720.87" font-family="Helvetica,sans-Serif" font-weight="bold" font-size="32.00" fill="#ffffff"> &#160;&#160;&#160;&#160;&#160;&#160;Client &#160;&#160;&#160;&#160;&#160;&#160;</text>
<polygon fill="#e7e2dd" stroke="transparent" points="3157.65,-639.67 3157.65,-699.67 3587.65,-699.67 3587.65,-639.67 3157.65,-639.67"/>
<polygon fill="none" stroke="#29235c" points="3157.65,-639.67 3157.65,-699.67 3587.65,-699.67 3587.65,-639.67 3157.65,-639.67"/>
<text text-anchor="start" x="3168.65" y="-660.87" font-family="Helvetica,sans-Serif" font-weight="bold" font-size="32.00" fill="#29235c">id</text>
<text text-anchor="start" x="3193.54" y="-660.87" font-family="Helvetica,sans-Serif" font-size="32.00" fill="#29235c"> &#160;&#160;&#160;</text>
<text text-anchor="start" x="3434.43" y="-660.87" font-family="Helvetica,sans-Serif" font-style="italic" font-size="32.00" fill="#29235c">INTEGER</text>
<polygon fill="#e7e2dd" stroke="transparent" points="3157.65,-579.67 3157.65,-639.67 3587.65,-639.67 3587.65,-579.67 3157.65,-579.67"/>
<polygon fill="none" stroke="#29235c" points="3157.65,-579.67 3157.65,-639.67 3587.65,-639.67 3587.65,-579.67 3157.65,-579.67"/>
<text text-anchor="start" x="3168.65" y="-599.87" font-family="Helvetica,sans-Serif" font-size="32.00" fill="#29235c">name &#160;&#160;&#160;</text>
<text text-anchor="start" x="3420.22" y="-600.87" font-family="Helvetica,sans-Serif" font-style="italic" font-size="32.00" fill="#29235c">VARCHAR</text>
<polygon fill="#e7e2dd" stroke="transparent" points="3157.65,-519.67 3157.65,-579.67 3587.65,-579.67 3587.65,-519.67 3157.65,-519.67"/>
<polygon fill="none" stroke="#29235c" points="3157.65,-519.67 3157.65,-579.67 3587.65,-579.67 3587.65,-519.67 3157.65,-519.67"/>
<text text-anchor="start" x="3168.65" y="-539.87" font-family="Helvetica,sans-Serif" font-size="32.00" fill="#29235c">email &#160;&#160;&#160;</text>
<text text-anchor="start" x="3420.22" y="-540.87" font-family="Helvetica,sans-Serif" font-style="italic" font-size="32.00" fill="#29235c">VARCHAR</text>
<polygon fill="#e7e2dd" stroke="transparent" points="3157.65,-459.67 3157.65,-519.67 3587.65,-519.67 3587.65,-459.67 3157.65,-459.67"/>
<polygon fill="none" stroke="#29235c" points="3157.65,-459.67 3157.65,-519.67 3587.65,-519.67 3587.65,-459.67 3157.65,-459.67"/>
<text text-anchor="start" x="3168.65" y="-479.87" font-family="Helvetica,sans-Serif" font-size="32.00" fill="#29235c">phone &#160;&#160;&#160;</text>
<text text-anchor="start" x="3420.22" y="-480.87" font-family="Helvetica,sans-Serif" font-style="italic" font-size="32.00" fill="#29235c">VARCHAR</text>
<polygon fill="#e7e2dd" stroke="transparent" points="3157.65,-399.67 3157.65,-459.67 3587.65,-459.67 3587.65,-399.67 3157.65,-399.67"/>
<polygon fill="none" stroke="#29235c" points="3157.65,-399.67 3157.65,-459.67 3587.65,-459.67 3587.65,-399.67 3157.65,-399.67"/>
<text text-anchor="start" x="3168.65" y="-419.87" font-family="Helvetica,sans-Serif" font-size="32.00" fill="#29235c">total_hours &#160;&#160;&#160;</text>
<text text-anchor="start" x="3434.43" y="-420.87" font-family="Helvetica,sans-Serif" font-style="italic" font-size="32.00" fill="#29235c">DECIMAL</text>
<polygon fill="#e7e2dd" stroke="transparent" points="3157.65,-339.67 3157.65,-399.67 3587.65,-399.67 3587.65,-339.67 3157.65,-339.67"/>
<polygon fill="none" stroke="#29235c" points="3157.65,-339.67 3157.65,-399.67 3587.65,-399.67 3587.65,-339.67 3157.65,-339.67"/>
<text text-anchor="start" x="3168.65" y="-359.87" font-family="Helvetica,sans-Serif" font-size="32.00" fill="#29235c">total_amount &#160;&#160;&#160;</text>
<text text-anchor="start" x="3434.43" y="-360.87" font-family="Helvetica,sans-Serif" font-style="italic" font-size="32.00" fill="#29235c">DECIMAL</text>
<polygon fill="#e7e2dd" stroke="transparent" points="3157.65,-279.67 3157.65,-339.67 3587.65,-339.67 3587.65,-279.67 3157.65,-279.67"/>
<polygon fill="none" stroke="#29235c" points="3157.65,-279.67 3157.65,-339.67 3587.65,-339.67 3587.65,-279.67 3157.65,-279.67"/>
<text text-anchor="start" x="3168.65" y="-299.87" font-family="Helvetica,sans-Serif" font-size="32.00" fill="#29235c">budget_amount &#160;&#160;&#160;</text>
<text text-anchor="start" x="3434.43" y="-300.87" font-family="Helvetica,sans-Serif" font-style="italic" font-size="32.00" fill="#29235c">DECIMAL</text>
<polygon fill="#e7e2dd" stroke="transparent" points="3157.65,-219.67 3157.65,-279.67 3587.65,-279.67 3587.65,-219.67 3157.65,-219.67"/>
<polygon fill="none" stroke="#29235c" points="3157.65,-219.67 3157.65,-279.67 3587.65,-279.67 3587.65,-219.67 3157.65,-219.67"/>
<text text-anchor="start" x="3168.49" y="-239.87" font-family="Helvetica,sans-Serif" font-size="32.00" fill="#29235c">is_over_budget &#160;&#160;&#160;</text>
<text text-anchor="start" x="3422.3" y="-240.87" font-family="Helvetica,sans-Serif" font-style="italic" font-size="32.00" fill="#29235c">BOOLEAN</text>
<polygon fill="none" stroke="#29235c" stroke-width="2" points="3156.65,-218.67 3156.65,-760.67 3588.65,-760.67 3588.65,-218.67 3156.65,-218.67"/>
</g>
<!-- Invoice -->
<g id="Invoice" class="node">
<title>Invoice</title>
<ellipse fill="none" stroke="black" stroke-width="0" cx="1886.44" cy="-1139.67" rx="305.44" ry="342.48"/>
<polygon fill="#1d71b8" stroke="transparent" points="1672.44,-1319.67 1672.44,-1379.67 2100.44,-1379.67 2100.44,-1319.67 1672.44,-1319.67"/>
<polygon fill="none" stroke="#29235c" points="1672.44,-1319.67 1672.44,-1379.67 2100.44,-1379.67 2100.44,-1319.67 1672.44,-1319.67"/>
<text text-anchor="start" x="1773.51" y="-1340.87" font-family="Helvetica,sans-Serif" font-weight="bold" font-size="32.00" fill="#ffffff"> &#160;&#160;&#160;&#160;&#160;&#160;Invoice &#160;&#160;&#160;&#160;&#160;&#160;</text>
<polygon fill="#e7e2dd" stroke="transparent" points="1672.44,-1259.67 1672.44,-1319.67 2100.44,-1319.67 2100.44,-1259.67 1672.44,-1259.67"/>
<polygon fill="none" stroke="#29235c" points="1672.44,-1259.67 1672.44,-1319.67 2100.44,-1319.67 2100.44,-1259.67 1672.44,-1259.67"/>
<text text-anchor="start" x="1683.44" y="-1280.87" font-family="Helvetica,sans-Serif" font-weight="bold" font-size="32.00" fill="#29235c">id</text>
<text text-anchor="start" x="1708.33" y="-1280.87" font-family="Helvetica,sans-Serif" font-size="32.00" fill="#29235c"> &#160;&#160;&#160;</text>
<text text-anchor="start" x="1947.22" y="-1280.87" font-family="Helvetica,sans-Serif" font-style="italic" font-size="32.00" fill="#29235c">INTEGER</text>
<polygon fill="#e7e2dd" stroke="transparent" points="1672.44,-1199.67 1672.44,-1259.67 2100.44,-1259.67 2100.44,-1199.67 1672.44,-1199.67"/>
<polygon fill="none" stroke="#29235c" points="1672.44,-1199.67 1672.44,-1259.67 2100.44,-1259.67 2100.44,-1199.67 1672.44,-1199.67"/>
<text text-anchor="start" x="1683.44" y="-1219.87" font-family="Helvetica,sans-Serif" font-size="32.00" fill="#29235c">invoice_date &#160;&#160;&#160;</text>
<text text-anchor="start" x="1927.67" y="-1220.87" font-family="Helvetica,sans-Serif" font-style="italic" font-size="32.00" fill="#29235c">DATETIME</text>
<polygon fill="#e7e2dd" stroke="transparent" points="1672.44,-1139.67 1672.44,-1199.67 2100.44,-1199.67 2100.44,-1139.67 1672.44,-1139.67"/>
<polygon fill="none" stroke="#29235c" points="1672.44,-1139.67 1672.44,-1199.67 2100.44,-1199.67 2100.44,-1139.67 1672.44,-1139.67"/>
<text text-anchor="start" x="1683.44" y="-1159.87" font-family="Helvetica,sans-Serif" font-size="32.00" fill="#29235c">project_id &#160;&#160;&#160;</text>
<text text-anchor="start" x="1947.22" y="-1160.87" font-family="Helvetica,sans-Serif" font-style="italic" font-size="32.00" fill="#29235c">INTEGER</text>
<polygon fill="#e7e2dd" stroke="transparent" points="1672.44,-1079.67 1672.44,-1139.67 2100.44,-1139.67 2100.44,-1079.67 1672.44,-1079.67"/>
<polygon fill="none" stroke="#29235c" points="1672.44,-1079.67 1672.44,-1139.67 2100.44,-1139.67 2100.44,-1079.67 1672.44,-1079.67"/>
<text text-anchor="start" x="1683.44" y="-1099.87" font-family="Helvetica,sans-Serif" font-size="32.00" fill="#29235c">invoice_amount &#160;&#160;&#160;</text>
<text text-anchor="start" x="1947.22" y="-1100.87" font-family="Helvetica,sans-Serif" font-style="italic" font-size="32.00" fill="#29235c">DECIMAL</text>
<polygon fill="#e7e2dd" stroke="transparent" points="1672.44,-1019.67 1672.44,-1079.67 2100.44,-1079.67 2100.44,-1019.67 1672.44,-1019.67"/>
<polygon fill="none" stroke="#29235c" points="1672.44,-1019.67 1672.44,-1079.67 2100.44,-1079.67 2100.44,-1019.67 1672.44,-1019.67"/>
<text text-anchor="start" x="1683.44" y="-1039.87" font-family="Helvetica,sans-Serif" font-size="32.00" fill="#29235c">payment_total &#160;&#160;&#160;</text>
<text text-anchor="start" x="1947.22" y="-1040.87" font-family="Helvetica,sans-Serif" font-style="italic" font-size="32.00" fill="#29235c">DECIMAL</text>
<polygon fill="#e7e2dd" stroke="transparent" points="1672.44,-959.67 1672.44,-1019.67 2100.44,-1019.67 2100.44,-959.67 1672.44,-959.67"/>
<polygon fill="none" stroke="#29235c" points="1672.44,-959.67 1672.44,-1019.67 2100.44,-1019.67 2100.44,-959.67 1672.44,-959.67"/>
<text text-anchor="start" x="1682.95" y="-979.87" font-family="Helvetica,sans-Serif" font-size="32.00" fill="#29235c">invoice_balance &#160;&#160;&#160;</text>
<text text-anchor="start" x="1947.33" y="-980.87" font-family="Helvetica,sans-Serif" font-style="italic" font-size="32.00" fill="#29235c">DECIMAL</text>
<polygon fill="#e7e2dd" stroke="transparent" points="1672.44,-899.67 1672.44,-959.67 2100.44,-959.67 2100.44,-899.67 1672.44,-899.67"/>
<polygon fill="none" stroke="#29235c" points="1672.44,-899.67 1672.44,-959.67 2100.44,-959.67 2100.44,-899.67 1672.44,-899.67"/>
<text text-anchor="start" x="1683.44" y="-919.87" font-family="Helvetica,sans-Serif" font-size="32.00" fill="#29235c">is_paid &#160;&#160;&#160;</text>
<text text-anchor="start" x="1934.74" y="-920.87" font-family="Helvetica,sans-Serif" font-style="italic" font-size="32.00" fill="#29235c">BOOLEAN</text>
<polygon fill="none" stroke="#29235c" stroke-width="2" points="1671.44,-898.67 1671.44,-1380.67 2101.44,-1380.67 2101.44,-898.67 1671.44,-898.67"/>
</g>
<!-- Project -->
<g id="Project" class="node">
<title>Project</title>
<ellipse fill="none" stroke="black" stroke-width="0" cx="2648.63" cy="-1139.67" rx="381.26" ry="342.48"/>
<polygon fill="#1d71b8" stroke="transparent" points="2381.63,-1319.67 2381.63,-1379.67 2916.63,-1379.67 2916.63,-1319.67 2381.63,-1319.67"/>
<polygon fill="none" stroke="#29235c" points="2381.63,-1319.67 2381.63,-1379.67 2916.63,-1379.67 2916.63,-1319.67 2381.63,-1319.67"/>
<text text-anchor="start" x="2537.1" y="-1340.87" font-family="Helvetica,sans-Serif" font-weight="bold" font-size="32.00" fill="#ffffff"> &#160;&#160;&#160;&#160;&#160;&#160;Project &#160;&#160;&#160;&#160;&#160;&#160;</text>
<polygon fill="#e7e2dd" stroke="transparent" points="2381.63,-1259.67 2381.63,-1319.67 2916.63,-1319.67 2916.63,-1259.67 2381.63,-1259.67"/>
<polygon fill="none" stroke="#29235c" points="2381.63,-1259.67 2381.63,-1319.67 2916.63,-1319.67 2916.63,-1259.67 2381.63,-1259.67"/>
<text text-anchor="start" x="2392.63" y="-1280.87" font-family="Helvetica,sans-Serif" font-weight="bold" font-size="32.00" fill="#29235c">id</text>
<text text-anchor="start" x="2417.52" y="-1280.87" font-family="Helvetica,sans-Serif" font-size="32.00" fill="#29235c"> &#160;&#160;&#160;</text>
<text text-anchor="start" x="2763.42" y="-1280.87" font-family="Helvetica,sans-Serif" font-style="italic" font-size="32.00" fill="#29235c">INTEGER</text>
<polygon fill="#e7e2dd" stroke="transparent" points="2381.63,-1199.67 2381.63,-1259.67 2916.63,-1259.67 2916.63,-1199.67 2381.63,-1199.67"/>
<polygon fill="none" stroke="#29235c" points="2381.63,-1199.67 2381.63,-1259.67 2916.63,-1259.67 2916.63,-1199.67 2381.63,-1199.67"/>
<text text-anchor="start" x="2392.63" y="-1219.87" font-family="Helvetica,sans-Serif" font-size="32.00" fill="#29235c">client_id &#160;&#160;&#160;</text>
<text text-anchor="start" x="2763.42" y="-1220.87" font-family="Helvetica,sans-Serif" font-style="italic" font-size="32.00" fill="#29235c">INTEGER</text>
<polygon fill="#e7e2dd" stroke="transparent" points="2381.63,-1139.67 2381.63,-1199.67 2916.63,-1199.67 2916.63,-1139.67 2381.63,-1139.67"/>
<polygon fill="none" stroke="#29235c" points="2381.63,-1139.67 2381.63,-1199.67 2916.63,-1199.67 2916.63,-1139.67 2381.63,-1139.67"/>
<text text-anchor="start" x="2392.63" y="-1159.87" font-family="Helvetica,sans-Serif" font-size="32.00" fill="#29235c">name &#160;&#160;&#160;</text>
<text text-anchor="start" x="2749.21" y="-1160.87" font-family="Helvetica,sans-Serif" font-style="italic" font-size="32.00" fill="#29235c">VARCHAR</text>
<polygon fill="#e7e2dd" stroke="transparent" points="2381.63,-1079.67 2381.63,-1139.67 2916.63,-1139.67 2916.63,-1079.67 2381.63,-1079.67"/>
<polygon fill="none" stroke="#29235c" points="2381.63,-1079.67 2381.63,-1139.67 2916.63,-1139.67 2916.63,-1079.67 2381.63,-1079.67"/>
<text text-anchor="start" x="2392.63" y="-1099.87" font-family="Helvetica,sans-Serif" font-size="32.00" fill="#29235c">total_project_hours &#160;&#160;&#160;</text>
<text text-anchor="start" x="2763.42" y="-1100.87" font-family="Helvetica,sans-Serif" font-style="italic" font-size="32.00" fill="#29235c">DECIMAL</text>
<polygon fill="#e7e2dd" stroke="transparent" points="2381.63,-1019.67 2381.63,-1079.67 2916.63,-1079.67 2916.63,-1019.67 2381.63,-1019.67"/>
<polygon fill="none" stroke="#29235c" points="2381.63,-1019.67 2381.63,-1079.67 2916.63,-1079.67 2916.63,-1019.67 2381.63,-1019.67"/>
<text text-anchor="start" x="2392.63" y="-1039.87" font-family="Helvetica,sans-Serif" font-size="32.00" fill="#29235c">total_project_amount &#160;&#160;&#160;</text>
<text text-anchor="start" x="2763.42" y="-1040.87" font-family="Helvetica,sans-Serif" font-style="italic" font-size="32.00" fill="#29235c">DECIMAL</text>
<polygon fill="#e7e2dd" stroke="transparent" points="2381.63,-959.67 2381.63,-1019.67 2916.63,-1019.67 2916.63,-959.67 2381.63,-959.67"/>
<polygon fill="none" stroke="#29235c" points="2381.63,-959.67 2381.63,-1019.67 2916.63,-1019.67 2916.63,-959.67 2381.63,-959.67"/>
<text text-anchor="start" x="2392.29" y="-979.87" font-family="Helvetica,sans-Serif" font-size="32.00" fill="#29235c">project_budget_amount &#160;&#160;&#160;</text>
<text text-anchor="start" x="2763.53" y="-980.87" font-family="Helvetica,sans-Serif" font-style="italic" font-size="32.00" fill="#29235c">DECIMAL</text>
<polygon fill="#e7e2dd" stroke="transparent" points="2381.63,-899.67 2381.63,-959.67 2916.63,-959.67 2916.63,-899.67 2381.63,-899.67"/>
<polygon fill="none" stroke="#29235c" points="2381.63,-899.67 2381.63,-959.67 2916.63,-959.67 2916.63,-899.67 2381.63,-899.67"/>
<text text-anchor="start" x="2392.63" y="-919.87" font-family="Helvetica,sans-Serif" font-size="32.00" fill="#29235c">is_over_budget &#160;&#160;&#160;</text>
<text text-anchor="start" x="2750.94" y="-920.87" font-family="Helvetica,sans-Serif" font-style="italic" font-size="32.00" fill="#29235c">BOOLEAN</text>
<polygon fill="none" stroke="#29235c" stroke-width="2" points="2380.13,-898.67 2380.13,-1380.67 2917.13,-1380.67 2917.13,-898.67 2380.13,-898.67"/>
</g>
<!-- Invoice&#45;&gt;Project -->
<!-- Invoice&#45;&gt;Project -->
<g id="edge2" class="edge">
<title>Invoice:e&#45;&gt;Project:w</title>
<path fill="none" stroke="#29235c" stroke-width="3" d="M2101.44,-1169.67C2233.07,-1169.67 2245.03,-1283.65 2370.59,-1289.44"/>
<polygon fill="#29235c" stroke="#29235c" stroke-width="3" points="2370.56,-1292.94 2380.63,-1289.67 2370.72,-1285.94 2370.56,-1292.94"/>
<text text-anchor="middle" x="2386.86" y="-1299.27" font-family="Helvetica,sans-Serif" font-size="32.00" fill="#29235c">*</text>
<text text-anchor="middle" x="2092.54" y="-1179.27" font-family="Helvetica,sans-Serif" font-size="32.00" fill="#29235c">1</text>
</g>
<!-- Project&#45;&gt;Client -->
<!-- Project&#45;&gt;Client -->
<g id="edge4" class="edge">
<title>Project:e&#45;&gt;Client:w</title>
<path fill="none" stroke="#29235c" stroke-width="3" d="M2917.63,-1229.67C3184.81,-1229.67 2893.62,-683.79 3146.62,-669.93"/>
<polygon fill="#29235c" stroke="#29235c" stroke-width="3" points="3146.75,-673.43 3156.65,-669.67 3146.56,-666.43 3146.75,-673.43"/>
<text text-anchor="middle" x="3162.87" y="-679.27" font-family="Helvetica,sans-Serif" font-size="32.00" fill="#29235c">*</text>
<text text-anchor="middle" x="2926.53" y="-1239.27" font-family="Helvetica,sans-Serif" font-size="32.00" fill="#29235c">1</text>
</g>
<!-- Payment -->
<g id="Payment" class="node">
<title>Payment</title>
<ellipse fill="none" stroke="black" stroke-width="0" cx="1110.1" cy="-867.67" rx="318.4" ry="257.27"/>
<polygon fill="#1d71b8" stroke="transparent" points="887.1,-987.67 887.1,-1047.67 1333.1,-1047.67 1333.1,-987.67 887.1,-987.67"/>
<polygon fill="none" stroke="#29235c" points="887.1,-987.67 887.1,-1047.67 1333.1,-1047.67 1333.1,-987.67 887.1,-987.67"/>
<text text-anchor="start" x="984.72" y="-1008.87" font-family="Helvetica,sans-Serif" font-weight="bold" font-size="32.00" fill="#ffffff"> &#160;&#160;&#160;&#160;&#160;&#160;Payment &#160;&#160;&#160;&#160;&#160;&#160;</text>
<polygon fill="#e7e2dd" stroke="transparent" points="887.1,-927.67 887.1,-987.67 1333.1,-987.67 1333.1,-927.67 887.1,-927.67"/>
<polygon fill="none" stroke="#29235c" points="887.1,-927.67 887.1,-987.67 1333.1,-987.67 1333.1,-927.67 887.1,-927.67"/>
<text text-anchor="start" x="898.1" y="-948.87" font-family="Helvetica,sans-Serif" font-weight="bold" font-size="32.00" fill="#29235c">id</text>
<text text-anchor="start" x="922.98" y="-948.87" font-family="Helvetica,sans-Serif" font-size="32.00" fill="#29235c"> &#160;&#160;&#160;</text>
<text text-anchor="start" x="1179.88" y="-948.87" font-family="Helvetica,sans-Serif" font-style="italic" font-size="32.00" fill="#29235c">INTEGER</text>
<polygon fill="#e7e2dd" stroke="transparent" points="887.1,-867.67 887.1,-927.67 1333.1,-927.67 1333.1,-867.67 887.1,-867.67"/>
<polygon fill="none" stroke="#29235c" points="887.1,-867.67 887.1,-927.67 1333.1,-927.67 1333.1,-867.67 887.1,-867.67"/>
<text text-anchor="start" x="898.1" y="-887.87" font-family="Helvetica,sans-Serif" font-size="32.00" fill="#29235c">invoice_id &#160;&#160;&#160;</text>
<text text-anchor="start" x="1179.88" y="-888.87" font-family="Helvetica,sans-Serif" font-style="italic" font-size="32.00" fill="#29235c">INTEGER</text>
<polygon fill="#e7e2dd" stroke="transparent" points="887.1,-807.67 887.1,-867.67 1333.1,-867.67 1333.1,-807.67 887.1,-807.67"/>
<polygon fill="none" stroke="#29235c" points="887.1,-807.67 887.1,-867.67 1333.1,-867.67 1333.1,-807.67 887.1,-807.67"/>
<text text-anchor="start" x="897.71" y="-827.87" font-family="Helvetica,sans-Serif" font-size="32.00" fill="#29235c">payment_amount &#160;&#160;&#160;</text>
<text text-anchor="start" x="1179.99" y="-828.87" font-family="Helvetica,sans-Serif" font-style="italic" font-size="32.00" fill="#29235c">DECIMAL</text>
<polygon fill="#e7e2dd" stroke="transparent" points="887.1,-747.67 887.1,-807.67 1333.1,-807.67 1333.1,-747.67 887.1,-747.67"/>
<polygon fill="none" stroke="#29235c" points="887.1,-747.67 887.1,-807.67 1333.1,-807.67 1333.1,-747.67 887.1,-747.67"/>
<text text-anchor="start" x="898.1" y="-767.87" font-family="Helvetica,sans-Serif" font-size="32.00" fill="#29235c">payment_date &#160;&#160;&#160;</text>
<text text-anchor="start" x="1160.33" y="-768.87" font-family="Helvetica,sans-Serif" font-style="italic" font-size="32.00" fill="#29235c">DATETIME</text>
<polygon fill="#e7e2dd" stroke="transparent" points="887.1,-687.67 887.1,-747.67 1333.1,-747.67 1333.1,-687.67 887.1,-687.67"/>
<polygon fill="none" stroke="#29235c" points="887.1,-687.67 887.1,-747.67 1333.1,-747.67 1333.1,-687.67 887.1,-687.67"/>
<text text-anchor="start" x="898.1" y="-707.87" font-family="Helvetica,sans-Serif" font-size="32.00" fill="#29235c">notes &#160;&#160;&#160;</text>
<text text-anchor="start" x="1165.67" y="-708.87" font-family="Helvetica,sans-Serif" font-style="italic" font-size="32.00" fill="#29235c">VARCHAR</text>
<polygon fill="none" stroke="#29235c" stroke-width="2" points="886.1,-686.67 886.1,-1048.67 1334.1,-1048.67 1334.1,-686.67 886.1,-686.67"/>
</g>
<!-- Payment&#45;&gt;Invoice -->
<!-- Payment&#45;&gt;Invoice -->
<g id="edge6" class="edge">
<title>Payment:e&#45;&gt;Invoice:w</title>
<path fill="none" stroke="#29235c" stroke-width="3" d="M1334.1,-897.67C1560.47,-897.67 1445.21,-1277.89 1661.24,-1289.4"/>
<polygon fill="#29235c" stroke="#29235c" stroke-width="3" points="1661.35,-1292.9 1671.44,-1289.67 1661.53,-1285.91 1661.35,-1292.9"/>
<text text-anchor="middle" x="1665.21" y="-1299.27" font-family="Helvetica,sans-Serif" font-size="32.00" fill="#29235c">*</text>
<text text-anchor="middle" x="1325.2" y="-907.27" font-family="Helvetica,sans-Serif" font-size="32.00" fill="#29235c">1</text>
</g>
<!-- Person -->
<g id="Person" class="node">
<title>Person</title>
<ellipse fill="none" stroke="black" stroke-width="0" cx="1886.44" cy="-384.67" rx="345.14" ry="384.83"/>
<polygon fill="#1d71b8" stroke="transparent" points="1644.44,-594.67 1644.44,-654.67 2128.44,-654.67 2128.44,-594.67 1644.44,-594.67"/>
<polygon fill="none" stroke="#29235c" points="1644.44,-594.67 1644.44,-654.67 2128.44,-654.67 2128.44,-594.67 1644.44,-594.67"/>
<text text-anchor="start" x="1773.51" y="-615.87" font-family="Helvetica,sans-Serif" font-weight="bold" font-size="32.00" fill="#ffffff"> &#160;&#160;&#160;&#160;&#160;&#160;Person &#160;&#160;&#160;&#160;&#160;&#160;</text>
<polygon fill="#e7e2dd" stroke="transparent" points="1644.44,-534.67 1644.44,-594.67 2128.44,-594.67 2128.44,-534.67 1644.44,-534.67"/>
<polygon fill="none" stroke="#29235c" points="1644.44,-534.67 1644.44,-594.67 2128.44,-594.67 2128.44,-534.67 1644.44,-534.67"/>
<text text-anchor="start" x="1655.44" y="-555.87" font-family="Helvetica,sans-Serif" font-weight="bold" font-size="32.00" fill="#29235c">id</text>
<text text-anchor="start" x="1680.33" y="-555.87" font-family="Helvetica,sans-Serif" font-size="32.00" fill="#29235c"> &#160;&#160;&#160;</text>
<text text-anchor="start" x="1975.22" y="-555.87" font-family="Helvetica,sans-Serif" font-style="italic" font-size="32.00" fill="#29235c">INTEGER</text>
<polygon fill="#e7e2dd" stroke="transparent" points="1644.44,-474.67 1644.44,-534.67 2128.44,-534.67 2128.44,-474.67 1644.44,-474.67"/>
<polygon fill="none" stroke="#29235c" points="1644.44,-474.67 1644.44,-534.67 2128.44,-534.67 2128.44,-474.67 1644.44,-474.67"/>
<text text-anchor="start" x="1655.44" y="-494.87" font-family="Helvetica,sans-Serif" font-size="32.00" fill="#29235c">client_id &#160;&#160;&#160;</text>
<text text-anchor="start" x="1975.22" y="-495.87" font-family="Helvetica,sans-Serif" font-style="italic" font-size="32.00" fill="#29235c">INTEGER</text>
<polygon fill="#e7e2dd" stroke="transparent" points="1644.44,-414.67 1644.44,-474.67 2128.44,-474.67 2128.44,-414.67 1644.44,-414.67"/>
<polygon fill="none" stroke="#29235c" points="1644.44,-414.67 1644.44,-474.67 2128.44,-474.67 2128.44,-414.67 1644.44,-414.67"/>
<text text-anchor="start" x="1655.44" y="-434.87" font-family="Helvetica,sans-Serif" font-size="32.00" fill="#29235c">name &#160;&#160;&#160;</text>
<text text-anchor="start" x="1961.01" y="-435.87" font-family="Helvetica,sans-Serif" font-style="italic" font-size="32.00" fill="#29235c">VARCHAR</text>
<polygon fill="#e7e2dd" stroke="transparent" points="1644.44,-354.67 1644.44,-414.67 2128.44,-414.67 2128.44,-354.67 1644.44,-354.67"/>
<polygon fill="none" stroke="#29235c" points="1644.44,-354.67 1644.44,-414.67 2128.44,-414.67 2128.44,-354.67 1644.44,-354.67"/>
<text text-anchor="start" x="1655.44" y="-374.87" font-family="Helvetica,sans-Serif" font-size="32.00" fill="#29235c">email &#160;&#160;&#160;</text>
<text text-anchor="start" x="1961.01" y="-375.87" font-family="Helvetica,sans-Serif" font-style="italic" font-size="32.00" fill="#29235c">VARCHAR</text>
<polygon fill="#e7e2dd" stroke="transparent" points="1644.44,-294.67 1644.44,-354.67 2128.44,-354.67 2128.44,-294.67 1644.44,-294.67"/>
<polygon fill="none" stroke="#29235c" points="1644.44,-294.67 1644.44,-354.67 2128.44,-354.67 2128.44,-294.67 1644.44,-294.67"/>
<text text-anchor="start" x="1655.44" y="-314.87" font-family="Helvetica,sans-Serif" font-size="32.00" fill="#29235c">phone &#160;&#160;&#160;</text>
<text text-anchor="start" x="1961.01" y="-315.87" font-family="Helvetica,sans-Serif" font-style="italic" font-size="32.00" fill="#29235c">VARCHAR</text>
<polygon fill="#e7e2dd" stroke="transparent" points="1644.44,-234.67 1644.44,-294.67 2128.44,-294.67 2128.44,-234.67 1644.44,-234.67"/>
<polygon fill="none" stroke="#29235c" points="1644.44,-234.67 1644.44,-294.67 2128.44,-294.67 2128.44,-234.67 1644.44,-234.67"/>
<text text-anchor="start" x="1655.44" y="-254.87" font-family="Helvetica,sans-Serif" font-size="32.00" fill="#29235c">billing_rate &#160;&#160;&#160;</text>
<text text-anchor="start" x="1975.22" y="-255.87" font-family="Helvetica,sans-Serif" font-style="italic" font-size="32.00" fill="#29235c">DECIMAL</text>
<polygon fill="#e7e2dd" stroke="transparent" points="1644.44,-174.67 1644.44,-234.67 2128.44,-234.67 2128.44,-174.67 1644.44,-174.67"/>
<polygon fill="none" stroke="#29235c" points="1644.44,-174.67 1644.44,-234.67 2128.44,-234.67 2128.44,-174.67 1644.44,-174.67"/>
<text text-anchor="start" x="1655.38" y="-194.87" font-family="Helvetica,sans-Serif" font-size="32.00" fill="#29235c">total_hours_entered &#160;&#160;&#160;</text>
<text text-anchor="start" x="1975.33" y="-195.87" font-family="Helvetica,sans-Serif" font-style="italic" font-size="32.00" fill="#29235c">DECIMAL</text>
<polygon fill="#e7e2dd" stroke="transparent" points="1644.44,-114.67 1644.44,-174.67 2128.44,-174.67 2128.44,-114.67 1644.44,-114.67"/>
<polygon fill="none" stroke="#29235c" points="1644.44,-114.67 1644.44,-174.67 2128.44,-174.67 2128.44,-114.67 1644.44,-114.67"/>
<text text-anchor="start" x="1655.44" y="-134.87" font-family="Helvetica,sans-Serif" font-size="32.00" fill="#29235c">total_amount_billed &#160;&#160;&#160;</text>
<text text-anchor="start" x="1975.22" y="-135.87" font-family="Helvetica,sans-Serif" font-style="italic" font-size="32.00" fill="#29235c">DECIMAL</text>
<polygon fill="none" stroke="#29235c" stroke-width="2" points="1643.44,-113.67 1643.44,-655.67 2129.44,-655.67 2129.44,-113.67 1643.44,-113.67"/>
</g>
<!-- Person&#45;&gt;Client -->
<!-- Person&#45;&gt;Client -->
<g id="edge8" class="edge">
<title>Person:e&#45;&gt;Client:w</title>
<path fill="none" stroke="#29235c" stroke-width="3" d="M2129.44,-504.67C2533.12,-504.67 2637.33,-530.02 3029.77,-624.67 3084.52,-637.87 3095.6,-666.09 3146.64,-669.36"/>
<polygon fill="#29235c" stroke="#29235c" stroke-width="3" points="3146.55,-672.86 3156.65,-669.67 3146.76,-665.86 3146.55,-672.86"/>
<text text-anchor="middle" x="3162.87" y="-640.87" font-family="Helvetica,sans-Serif" font-size="32.00" fill="#29235c">*</text>
<text text-anchor="middle" x="2120.54" y="-514.27" font-family="Helvetica,sans-Serif" font-size="32.00" fill="#29235c">1</text>
</g>
<!-- Task -->
<g id="Task" class="node">
<title>Task</title>
<ellipse fill="none" stroke="black" stroke-width="0" cx="1110.1" cy="-1569.67" rx="395.05" ry="427.19"/>
<polygon fill="#1d71b8" stroke="transparent" points="833.1,-1809.67 833.1,-1869.67 1388.1,-1869.67 1388.1,-1809.67 833.1,-1809.67"/>
<polygon fill="none" stroke="#29235c" points="833.1,-1809.67 833.1,-1869.67 1388.1,-1869.67 1388.1,-1809.67 833.1,-1809.67"/>
<text text-anchor="start" x="1013.68" y="-1830.87" font-family="Helvetica,sans-Serif" font-weight="bold" font-size="32.00" fill="#ffffff"> &#160;&#160;&#160;&#160;&#160;&#160;Task &#160;&#160;&#160;&#160;&#160;&#160;</text>
<polygon fill="#e7e2dd" stroke="transparent" points="833.1,-1749.67 833.1,-1809.67 1388.1,-1809.67 1388.1,-1749.67 833.1,-1749.67"/>
<polygon fill="none" stroke="#29235c" points="833.1,-1749.67 833.1,-1809.67 1388.1,-1809.67 1388.1,-1749.67 833.1,-1749.67"/>
<text text-anchor="start" x="844.1" y="-1770.87" font-family="Helvetica,sans-Serif" font-weight="bold" font-size="32.00" fill="#29235c">id</text>
<text text-anchor="start" x="868.98" y="-1770.87" font-family="Helvetica,sans-Serif" font-size="32.00" fill="#29235c"> &#160;&#160;&#160;</text>
<text text-anchor="start" x="1234.88" y="-1770.87" font-family="Helvetica,sans-Serif" font-style="italic" font-size="32.00" fill="#29235c">INTEGER</text>
<polygon fill="#e7e2dd" stroke="transparent" points="833.1,-1689.67 833.1,-1749.67 1388.1,-1749.67 1388.1,-1689.67 833.1,-1689.67"/>
<polygon fill="none" stroke="#29235c" points="833.1,-1689.67 833.1,-1749.67 1388.1,-1749.67 1388.1,-1689.67 833.1,-1689.67"/>
<text text-anchor="start" x="844.1" y="-1709.87" font-family="Helvetica,sans-Serif" font-size="32.00" fill="#29235c">project_id &#160;&#160;&#160;</text>
<text text-anchor="start" x="1234.88" y="-1710.87" font-family="Helvetica,sans-Serif" font-style="italic" font-size="32.00" fill="#29235c">INTEGER</text>
<polygon fill="#e7e2dd" stroke="transparent" points="833.1,-1629.67 833.1,-1689.67 1388.1,-1689.67 1388.1,-1629.67 833.1,-1629.67"/>
<polygon fill="none" stroke="#29235c" points="833.1,-1629.67 833.1,-1689.67 1388.1,-1689.67 1388.1,-1629.67 833.1,-1629.67"/>
<text text-anchor="start" x="844.1" y="-1649.87" font-family="Helvetica,sans-Serif" font-size="32.00" fill="#29235c">name &#160;&#160;&#160;</text>
<text text-anchor="start" x="1220.67" y="-1650.87" font-family="Helvetica,sans-Serif" font-style="italic" font-size="32.00" fill="#29235c">VARCHAR</text>
<polygon fill="#e7e2dd" stroke="transparent" points="833.1,-1569.67 833.1,-1629.67 1388.1,-1629.67 1388.1,-1569.67 833.1,-1569.67"/>
<polygon fill="none" stroke="#29235c" points="833.1,-1569.67 833.1,-1629.67 1388.1,-1629.67 1388.1,-1569.67 833.1,-1569.67"/>
<text text-anchor="start" x="844.1" y="-1589.87" font-family="Helvetica,sans-Serif" font-size="32.00" fill="#29235c">description &#160;&#160;&#160;</text>
<text text-anchor="start" x="1220.67" y="-1590.87" font-family="Helvetica,sans-Serif" font-style="italic" font-size="32.00" fill="#29235c">VARCHAR</text>
<polygon fill="#e7e2dd" stroke="transparent" points="833.1,-1509.67 833.1,-1569.67 1388.1,-1569.67 1388.1,-1509.67 833.1,-1509.67"/>
<polygon fill="none" stroke="#29235c" points="833.1,-1509.67 833.1,-1569.67 1388.1,-1569.67 1388.1,-1509.67 833.1,-1509.67"/>
<text text-anchor="start" x="843.98" y="-1529.87" font-family="Helvetica,sans-Serif" font-size="32.00" fill="#29235c">total_task_hours_worked &#160;&#160;&#160;</text>
<text text-anchor="start" x="1234.99" y="-1530.87" font-family="Helvetica,sans-Serif" font-style="italic" font-size="32.00" fill="#29235c">DECIMAL</text>
<polygon fill="#e7e2dd" stroke="transparent" points="833.1,-1449.67 833.1,-1509.67 1388.1,-1509.67 1388.1,-1449.67 833.1,-1449.67"/>
<polygon fill="none" stroke="#29235c" points="833.1,-1449.67 833.1,-1509.67 1388.1,-1509.67 1388.1,-1449.67 833.1,-1449.67"/>
<text text-anchor="start" x="844.1" y="-1469.87" font-family="Helvetica,sans-Serif" font-size="32.00" fill="#29235c">total_task_amount_billed &#160;&#160;&#160;</text>
<text text-anchor="start" x="1234.88" y="-1470.87" font-family="Helvetica,sans-Serif" font-style="italic" font-size="32.00" fill="#29235c">DECIMAL</text>
<polygon fill="#e7e2dd" stroke="transparent" points="833.1,-1389.67 833.1,-1449.67 1388.1,-1449.67 1388.1,-1389.67 833.1,-1389.67"/>
<polygon fill="none" stroke="#29235c" points="833.1,-1389.67 833.1,-1449.67 1388.1,-1449.67 1388.1,-1389.67 833.1,-1389.67"/>
<text text-anchor="start" x="844.1" y="-1409.87" font-family="Helvetica,sans-Serif" font-size="32.00" fill="#29235c">task_budget_hours &#160;&#160;&#160;</text>
<text text-anchor="start" x="1234.88" y="-1410.87" font-family="Helvetica,sans-Serif" font-style="italic" font-size="32.00" fill="#29235c">DECIMAL</text>
<polygon fill="#e7e2dd" stroke="transparent" points="833.1,-1329.67 833.1,-1389.67 1388.1,-1389.67 1388.1,-1329.67 833.1,-1329.67"/>
<polygon fill="none" stroke="#29235c" points="833.1,-1329.67 833.1,-1389.67 1388.1,-1389.67 1388.1,-1329.67 833.1,-1329.67"/>
<text text-anchor="start" x="844.1" y="-1349.87" font-family="Helvetica,sans-Serif" font-size="32.00" fill="#29235c">is_over_budget &#160;&#160;&#160;</text>
<text text-anchor="start" x="1222.4" y="-1350.87" font-family="Helvetica,sans-Serif" font-style="italic" font-size="32.00" fill="#29235c">BOOLEAN</text>
<polygon fill="#e7e2dd" stroke="transparent" points="833.1,-1269.67 833.1,-1329.67 1388.1,-1329.67 1388.1,-1269.67 833.1,-1269.67"/>
<polygon fill="none" stroke="#29235c" points="833.1,-1269.67 833.1,-1329.67 1388.1,-1329.67 1388.1,-1269.67 833.1,-1269.67"/>
<text text-anchor="start" x="844.1" y="-1289.87" font-family="Helvetica,sans-Serif" font-size="32.00" fill="#29235c">invoice_id &#160;&#160;&#160;</text>
<text text-anchor="start" x="1234.88" y="-1290.87" font-family="Helvetica,sans-Serif" font-style="italic" font-size="32.00" fill="#29235c">INTEGER</text>
<polygon fill="none" stroke="#29235c" stroke-width="2" points="831.6,-1268.67 831.6,-1870.67 1388.6,-1870.67 1388.6,-1268.67 831.6,-1268.67"/>
</g>
<!-- Task&#45;&gt;Invoice -->
<!-- Task&#45;&gt;Invoice -->
<g id="edge10" class="edge">
<title>Task:e&#45;&gt;Invoice:w</title>
<path fill="none" stroke="#29235c" stroke-width="3" d="M1389.1,-1299.67C1511.23,-1299.67 1544.09,-1290.21 1661.34,-1289.69"/>
<polygon fill="#29235c" stroke="#29235c" stroke-width="3" points="1661.44,-1293.19 1671.44,-1289.67 1661.43,-1286.19 1661.44,-1293.19"/>
<text text-anchor="middle" x="1665.21" y="-1260.87" font-family="Helvetica,sans-Serif" font-size="32.00" fill="#29235c">*</text>
<text text-anchor="middle" x="1380.2" y="-1309.27" font-family="Helvetica,sans-Serif" font-size="32.00" fill="#29235c">1</text>
</g>
<!-- Task&#45;&gt;Project -->
<!-- Task&#45;&gt;Project -->
<g id="edge12" class="edge">
<title>Task:e&#45;&gt;Project:w</title>
<path fill="none" stroke="#29235c" stroke-width="3" d="M1389.1,-1719.67C1467.94,-1719.67 1467.81,-1657.03 1541.37,-1628.67 1833.22,-1516.13 1967.3,-1658.12 2231.5,-1490.67 2322.43,-1433.04 2272.86,-1298.7 2370.39,-1290.1"/>
<polygon fill="#29235c" stroke="#29235c" stroke-width="3" points="2370.79,-1293.59 2380.63,-1289.67 2370.5,-1286.59 2370.79,-1293.59"/>
<text text-anchor="middle" x="2386.86" y="-1260.87" font-family="Helvetica,sans-Serif" font-size="32.00" fill="#29235c">*</text>
<text text-anchor="middle" x="1380.2" y="-1729.27" font-family="Helvetica,sans-Serif" font-size="32.00" fill="#29235c">1</text>
</g>
<!-- Timesheet -->
<g id="Timesheet" class="node">
<title>Timesheet</title>
<ellipse fill="none" stroke="black" stroke-width="0" cx="339.41" cy="-1011.67" rx="339.32" ry="427.19"/>
<polygon fill="#1d71b8" stroke="transparent" points="101.41,-1251.67 101.41,-1311.67 577.41,-1311.67 577.41,-1251.67 101.41,-1251.67"/>
<polygon fill="none" stroke="#29235c" points="101.41,-1251.67 101.41,-1311.67 577.41,-1311.67 577.41,-1251.67 101.41,-1251.67"/>
<text text-anchor="start" x="202.49" y="-1272.87" font-family="Helvetica,sans-Serif" font-weight="bold" font-size="32.00" fill="#ffffff"> &#160;&#160;&#160;&#160;&#160;&#160;Timesheet &#160;&#160;&#160;&#160;&#160;&#160;</text>
<polygon fill="#e7e2dd" stroke="transparent" points="101.41,-1191.67 101.41,-1251.67 577.41,-1251.67 577.41,-1191.67 101.41,-1191.67"/>
<polygon fill="none" stroke="#29235c" points="101.41,-1191.67 101.41,-1251.67 577.41,-1251.67 577.41,-1191.67 101.41,-1191.67"/>
<text text-anchor="start" x="112.41" y="-1212.87" font-family="Helvetica,sans-Serif" font-weight="bold" font-size="32.00" fill="#29235c">id</text>
<text text-anchor="start" x="137.3" y="-1212.87" font-family="Helvetica,sans-Serif" font-size="32.00" fill="#29235c"> &#160;&#160;&#160;</text>
<text text-anchor="start" x="424.19" y="-1212.87" font-family="Helvetica,sans-Serif" font-style="italic" font-size="32.00" fill="#29235c">INTEGER</text>
<polygon fill="#e7e2dd" stroke="transparent" points="101.41,-1131.67 101.41,-1191.67 577.41,-1191.67 577.41,-1131.67 101.41,-1131.67"/>
<polygon fill="none" stroke="#29235c" points="101.41,-1131.67 101.41,-1191.67 577.41,-1191.67 577.41,-1131.67 101.41,-1131.67"/>
<text text-anchor="start" x="112.41" y="-1151.87" font-family="Helvetica,sans-Serif" font-size="32.00" fill="#29235c">task_id &#160;&#160;&#160;</text>
<text text-anchor="start" x="424.19" y="-1152.87" font-family="Helvetica,sans-Serif" font-style="italic" font-size="32.00" fill="#29235c">INTEGER</text>
<polygon fill="#e7e2dd" stroke="transparent" points="101.41,-1071.67 101.41,-1131.67 577.41,-1131.67 577.41,-1071.67 101.41,-1071.67"/>
<polygon fill="none" stroke="#29235c" points="101.41,-1071.67 101.41,-1131.67 577.41,-1131.67 577.41,-1071.67 101.41,-1071.67"/>
<text text-anchor="start" x="112.41" y="-1091.87" font-family="Helvetica,sans-Serif" font-size="32.00" fill="#29235c">person_id &#160;&#160;&#160;</text>
<text text-anchor="start" x="424.19" y="-1092.87" font-family="Helvetica,sans-Serif" font-style="italic" font-size="32.00" fill="#29235c">INTEGER</text>
<polygon fill="#e7e2dd" stroke="transparent" points="101.41,-1011.67 101.41,-1071.67 577.41,-1071.67 577.41,-1011.67 101.41,-1011.67"/>
<polygon fill="none" stroke="#29235c" points="101.41,-1011.67 101.41,-1071.67 577.41,-1071.67 577.41,-1011.67 101.41,-1011.67"/>
<text text-anchor="start" x="112.41" y="-1031.87" font-family="Helvetica,sans-Serif" font-size="32.00" fill="#29235c">date_worked &#160;&#160;&#160;</text>
<text text-anchor="start" x="404.64" y="-1032.87" font-family="Helvetica,sans-Serif" font-style="italic" font-size="32.00" fill="#29235c">DATETIME</text>
<polygon fill="#e7e2dd" stroke="transparent" points="101.41,-951.67 101.41,-1011.67 577.41,-1011.67 577.41,-951.67 101.41,-951.67"/>
<polygon fill="none" stroke="#29235c" points="101.41,-951.67 101.41,-1011.67 577.41,-1011.67 577.41,-951.67 101.41,-951.67"/>
<text text-anchor="start" x="112.41" y="-971.87" font-family="Helvetica,sans-Serif" font-size="32.00" fill="#29235c">hours_worked &#160;&#160;&#160;</text>
<text text-anchor="start" x="424.19" y="-972.87" font-family="Helvetica,sans-Serif" font-style="italic" font-size="32.00" fill="#29235c">DECIMAL</text>
<polygon fill="#e7e2dd" stroke="transparent" points="101.41,-891.67 101.41,-951.67 577.41,-951.67 577.41,-891.67 101.41,-891.67"/>
<polygon fill="none" stroke="#29235c" points="101.41,-891.67 101.41,-951.67 577.41,-951.67 577.41,-891.67 101.41,-891.67"/>
<text text-anchor="start" x="112.41" y="-911.87" font-family="Helvetica,sans-Serif" font-size="32.00" fill="#29235c">month &#160;&#160;&#160;</text>
<text text-anchor="start" x="424.19" y="-912.87" font-family="Helvetica,sans-Serif" font-style="italic" font-size="32.00" fill="#29235c">INTEGER</text>
<polygon fill="#e7e2dd" stroke="transparent" points="101.41,-831.67 101.41,-891.67 577.41,-891.67 577.41,-831.67 101.41,-831.67"/>
<polygon fill="none" stroke="#29235c" points="101.41,-831.67 101.41,-891.67 577.41,-891.67 577.41,-831.67 101.41,-831.67"/>
<text text-anchor="start" x="112.41" y="-851.87" font-family="Helvetica,sans-Serif" font-size="32.00" fill="#29235c">year &#160;&#160;&#160;</text>
<text text-anchor="start" x="424.19" y="-852.87" font-family="Helvetica,sans-Serif" font-style="italic" font-size="32.00" fill="#29235c">INTEGER</text>
<polygon fill="#e7e2dd" stroke="transparent" points="101.41,-771.67 101.41,-831.67 577.41,-831.67 577.41,-771.67 101.41,-771.67"/>
<polygon fill="none" stroke="#29235c" points="101.41,-771.67 101.41,-831.67 577.41,-831.67 577.41,-771.67 101.41,-771.67"/>
<text text-anchor="start" x="112.41" y="-791.87" font-family="Helvetica,sans-Serif" font-size="32.00" fill="#29235c">billing_rate &#160;&#160;&#160;</text>
<text text-anchor="start" x="424.19" y="-792.87" font-family="Helvetica,sans-Serif" font-style="italic" font-size="32.00" fill="#29235c">DECIMAL</text>
<polygon fill="#e7e2dd" stroke="transparent" points="101.41,-711.67 101.41,-771.67 577.41,-771.67 577.41,-711.67 101.41,-711.67"/>
<polygon fill="none" stroke="#29235c" points="101.41,-711.67 101.41,-771.67 577.41,-771.67 577.41,-711.67 101.41,-711.67"/>
<text text-anchor="start" x="111.92" y="-731.87" font-family="Helvetica,sans-Serif" font-size="32.00" fill="#29235c">total_amount_billed &#160;&#160;&#160;</text>
<text text-anchor="start" x="424.3" y="-732.87" font-family="Helvetica,sans-Serif" font-style="italic" font-size="32.00" fill="#29235c">DECIMAL</text>
<polygon fill="none" stroke="#29235c" stroke-width="2" points="100.41,-710.67 100.41,-1312.67 578.41,-1312.67 578.41,-710.67 100.41,-710.67"/>
</g>
<!-- Timesheet&#45;&gt;Person -->
<!-- Timesheet&#45;&gt;Person -->
<g id="edge14" class="edge">
<title>Timesheet:e&#45;&gt;Person:w</title>
<path fill="none" stroke="#29235c" stroke-width="3" d="M578.41,-1101.67C822.07,-1101.67 522.76,-720.62 714.82,-570.67 1037.44,-318.78 1227.54,-560.58 1633.2,-564.62"/>
<polygon fill="#29235c" stroke="#29235c" stroke-width="3" points="1633.42,-568.12 1643.44,-564.67 1633.45,-561.12 1633.42,-568.12"/>
<text text-anchor="middle" x="1637.21" y="-574.27" font-family="Helvetica,sans-Serif" font-size="32.00" fill="#29235c">*</text>
<text text-anchor="middle" x="569.52" y="-1111.27" font-family="Helvetica,sans-Serif" font-size="32.00" fill="#29235c">1</text>
</g>
<!-- Timesheet&#45;&gt;Task -->
<!-- Timesheet&#45;&gt;Task -->
<g id="edge16" class="edge">
<title>Timesheet:e&#45;&gt;Task:w</title>
<path fill="none" stroke="#29235c" stroke-width="3" d="M578.41,-1161.67C871.84,-1161.67 543.07,-1765.27 821.92,-1779.41"/>
<polygon fill="#29235c" stroke="#29235c" stroke-width="3" points="822.01,-1782.92 832.1,-1779.67 822.19,-1775.92 822.01,-1782.92"/>
<text text-anchor="middle" x="825.87" y="-1789.27" font-family="Helvetica,sans-Serif" font-size="32.00" fill="#29235c">*</text>
<text text-anchor="middle" x="569.52" y="-1171.27" font-family="Helvetica,sans-Serif" font-size="32.00" fill="#29235c">1</text>
</g>
</g>
</svg>
